<?xml version="1.0" encoding="utf-8"?>
<!-- Generator: Adobe Illustrator 19.2.1, SVG Export Plug-In . SVG Version: 6.00 Build 0)  -->
<svg version="1.1" id="Capa_1" xmlns="http://www.w3.org/2000/svg" xmlns:xlink="http://www.w3.org/1999/xlink" x="0px" y="0px"
	 viewBox="0 0 100 100" style="enable-background:new 0 0 100 100;" xml:space="preserve">
<style type="text/css">
	.st0{fill:#FFFFFF;}
</style>
<g>
	<path class="st0" d="M57.6,5.6c-1.6-1.8-6,2.9-6,2.9L30.5,29.4H5.7c0,0-4-0.4-4,4.7s0,34.8,0,34.8S1.9,72,6.2,72
		c3.8,0,20.7,0,24.6,0L51,91.3c0,0,4.7,4.3,6.2,3.4c1.5-0.9,2.2-6.4,2.2-6.4V12.8C59.4,12.8,59.2,7.4,57.6,5.6z"/>
	<g>
		<path class="st0" d="M68.5,67.7c-1.4,0-2.7-0.7-3.5-2c-1.1-1.9-0.4-4.4,1.5-5.5c0.1,0,7.3-4.4,7.3-11.5c0-6.8-6.8-9.6-6.8-9.6
			C65,38.3,64,36,64.8,33.9c0.8-2.1,3.2-3.1,5.2-2.2c0.5,0.2,11.9,4.9,11.9,17.1C81.9,60.6,71,67,70.5,67.2
			C69.9,67.6,69.2,67.7,68.5,67.7z"/>
	</g>
	<g>
		<path class="st0" d="M74.5,87.3c-1.3,0-2.7-0.7-3.4-1.9c-1.2-1.9-0.6-4.4,1.3-5.5c0.2-0.1,17.9-11.5,17.9-30.3
			c0-19-17.7-30.5-17.9-30.6c-1.9-1.2-2.4-3.7-1.2-5.5c1.2-1.9,3.7-2.4,5.5-1.2c0.9,0.6,21.6,14,21.6,37.3
			c0,23.4-20.8,36.5-21.7,37.1C76,87.1,75.3,87.3,74.5,87.3z"/>
	</g>
</g>
</svg>
