<?xml version="1.0" encoding="utf-8"?>
<!-- Generator: Adobe Illustrator 19.2.1, SVG Export Plug-In . SVG Version: 6.00 Build 0)  -->
<svg version="1.1" id="Capa_1" focusable="false" xmlns="http://www.w3.org/2000/svg" xmlns:xlink="http://www.w3.org/1999/xlink"
	 x="0px" y="0px" viewBox="0 0 384 512" style="enable-background:new 0 0 384 512;" xml:space="preserve">
<style type="text/css">
	.st0{fill:#FF9300;}
</style>
<path class="st0" d="M360,457c0,0-14.9-158.8-119.6-201.5C345.1,212.8,360,54,360,54s20-7,20-19s-20-19-20-19H24c0,0-19,7-19,19
	s19,19,19,19s8.9,159.7,119.5,201.5C32.9,297.3,24,457,24,457s-19,7-19,19s19,19,19,19h336c0,0,20-7,20-19S360,457,360,457z M56,457
	c8-148.3,127.1-202,127.1-202C61,190.6,56,54,56,54h272c0,18.2-6,150-128.3,201c0,0,123.7,43,131.3,202H56z"/>
</svg>
